<svg width="180" height="24" viewBox="0 0 180 24" fill="none" xmlns="http://www.w3.org/2000/svg">
<g clip-path="url(#clip0_3_4)">
<path d="M126.3 23.2851H168.367C169.895 23.2851 171.408 22.9842 172.819 22.3996C174.23 21.815 175.513 20.9581 176.593 19.8779C177.673 18.7978 178.53 17.5154 179.115 16.104C179.699 14.6927 180 13.18 180 11.6524C180.003 10.1231 179.704 8.60834 179.12 7.19472C178.537 5.7811 177.68 4.49639 176.6 3.41411C175.519 2.33182 174.236 1.4732 172.824 0.887369C171.411 0.301539 169.897 -2.20407e-06 168.367 0L126.3 0C124.771 -2.20407e-06 123.257 0.301539 121.844 0.887369C120.431 1.4732 119.148 2.33182 118.068 3.41411C116.987 4.49639 116.131 5.7811 115.547 7.19472C114.964 8.60834 114.665 10.1231 114.668 11.6524C114.668 14.7376 115.893 17.6964 118.075 19.8779C120.256 22.0595 123.215 23.2851 126.3 23.2851ZM6.64911 23.318H11.7841V4.55563H18.4332V0H0V4.54247H6.64911V23.318ZM25.1481 23.318H30.2831V5.43121H30.3489L36.2409 23.3048H40.1909L46.2804 5.43121H46.3463V23.3048H51.4812V0H43.7459L38.3476 15.2074H38.2818L32.9164 0H25.1481V23.318ZM58.6833 0.0789994H66.3858C68.179 0.0817555 69.9653 0.302825 71.7051 0.737328C73.2895 1.1132 74.7825 1.80265 76.0961 2.76498C77.3666 3.72026 78.3893 4.96648 79.0783 6.39895C79.8573 8.10083 80.2335 9.95933 80.1777 11.8302C80.2134 13.5537 79.8483 15.2619 79.1113 16.8203C78.4249 18.2226 77.4409 19.4583 76.2278 20.4411C74.9861 21.4367 73.5679 22.1893 72.0474 22.6597C70.4403 23.17 68.7632 23.4254 67.077 23.4167H58.6833V0.0789994ZM63.8183 18.6439H66.4516C67.5592 18.6514 68.6638 18.5299 69.7432 18.2818C70.7064 18.0863 71.6173 17.6892 72.4161 17.1165C73.1785 16.5396 73.7849 15.7816 74.1804 14.9111C74.6426 13.8582 74.8674 12.7164 74.8387 11.5668C74.8583 10.5368 74.6326 9.51685 74.1804 8.59119C73.7698 7.77087 73.1777 7.05492 72.449 6.4977C71.6917 5.93527 70.8368 5.51788 69.9276 5.26663C68.9248 4.98622 67.8879 4.84664 66.8466 4.85188H63.8183V18.6439ZM87.6168 0.0789994H96.3068C97.3266 0.0794966 98.3452 0.152094 99.3548 0.296248C100.313 0.420317 101.241 0.709902 102.1 1.15207C102.902 1.56823 103.583 2.18518 104.075 2.94273C104.621 3.86715 104.885 4.93147 104.832 6.00395C104.877 7.19823 104.486 8.36815 103.733 9.2956C102.963 10.1867 101.949 10.8322 100.816 11.1521V11.1916C101.545 11.2957 102.252 11.518 102.91 11.8499C103.517 12.1547 104.063 12.5674 104.523 13.0678C104.978 13.5689 105.329 14.1551 105.556 14.7926C105.801 15.4677 105.924 16.1811 105.918 16.8993C105.958 17.981 105.683 19.051 105.128 19.9803C104.612 20.7891 103.913 21.4656 103.088 21.9553C102.22 22.4761 101.269 22.8436 100.276 23.0415C99.2531 23.2609 98.2093 23.3713 97.1626 23.3707H87.6168V0.0789994ZM92.7518 9.39435H96.4714C96.8658 9.3965 97.2591 9.3523 97.6432 9.26268C98.0105 9.18292 98.3605 9.03799 98.6768 8.83477C98.9853 8.63582 99.2406 8.36466 99.4207 8.04477C99.6135 7.68025 99.7088 7.27202 99.6972 6.85978C99.7183 6.44081 99.6177 6.02467 99.4075 5.66162C99.2032 5.35054 98.925 5.09495 98.5978 4.91771C98.2309 4.73353 97.8379 4.60696 97.4325 4.54247C97.0312 4.46486 96.6234 4.42518 96.2146 4.42397H92.7255L92.7518 9.39435ZM92.7518 19.0389H97.3601C97.7653 19.0399 98.1694 18.9958 98.5648 18.9072C98.9579 18.8268 99.3314 18.6702 99.6642 18.4464C99.9964 18.2272 100.273 17.9343 100.474 17.5905C100.69 17.1981 100.797 16.7547 100.783 16.3068C100.801 15.8343 100.657 15.3699 100.375 14.9901C100.099 14.6484 99.7412 14.3814 99.3351 14.2133C98.9132 14.0376 98.4708 13.9159 98.0184 13.8512C97.5713 13.7877 97.1204 13.7547 96.6689 13.7525H92.7847L92.7518 19.0389Z" fill="url(#paint0_linear_3_4)"/>
</g>
<defs>
<linearGradient id="paint0_linear_3_4" x1="0" y1="11.6919" x2="180" y2="11.6919" gradientUnits="userSpaceOnUse">
<stop stop-color="#90CEA1"/>
<stop offset="0.56" stop-color="#3CBEC9"/>
<stop offset="1" stop-color="#00B3E5"/>
</linearGradient>
<clipPath id="clip0_3_4">
<rect width="180" height="23.3838" fill="white"/>
</clipPath>
</defs>
</svg>
