<svg width="154" height="34" viewBox="0 0 154 34" fill="none" xmlns="http://www.w3.org/2000/svg">
<path d="M25.272 23.44V34H20.664V24.592L16.68 20.32H5.208V34H0.6V0.399998H20.424L25.08 5.056V15.52L21.384 19.216L25.272 23.44ZM5.208 16.384H18.36L20.52 14.272V6.448L18.36 4.336H5.208V16.384Z" fill="#01B4E4"/>
<path d="M32.2406 0.399998H36.8966L47.4086 24.976H47.5046L58.0646 0.399998H62.7206V34H58.3046V9.472H58.2086L49.0886 30.208H45.8246L36.7526 9.472H36.6566V34H32.2406V0.399998ZM69.2081 29.392V14.704L73.8161 10.096H86.5841L91.1441 14.704V29.392L86.5841 34H73.8161L69.2081 29.392ZM84.5201 30.112L86.6801 28V16.096L84.5201 13.984H75.8321L73.6721 16.096V28L75.8321 30.112H84.5201ZM94.0425 10.096H98.6505L105.275 29.2H105.467L112.043 10.096H116.651L107.771 34H102.971L94.0425 10.096ZM120.261 4.768V2.368L121.941 0.639997H124.485L126.165 2.368V4.768L124.485 6.496H121.941L120.261 4.768ZM120.981 10.096H125.445V34H120.981V10.096ZM132.161 29.44V14.704L136.769 10.096H149.297L153.905 14.704V23.44H136.625V28.048L138.737 30.16H147.329L149.441 28.096V26.464H153.857V29.44L149.345 34H136.721L132.161 29.44ZM149.441 19.936V16.048L147.281 13.936H138.785L136.625 16.048V19.936H149.441Z" fill="white"/>
</svg>
